<svg width="297" height="42" viewBox="0 0 297 42" fill="none" xmlns="http://www.w3.org/2000/svg">
					<g clip-path="url(#clip0)">
						<path d="M9.73713 14.2636L9.88434 14.2137V4.88042V3.09924C9.85157 3.01563 9.83954 2.92509 9.84932 2.83563C9.8591 2.74618 9.89039 2.66053 9.94043 2.58627C9.99296 2.51133 10.0624 2.45024 10.1428 2.4081C10.2233 2.36596 10.3126 2.34399 10.4031 2.34402H18.6611C18.7516 2.34399 18.8408 2.36596 18.9213 2.4081C19.0018 2.45024 19.0712 2.51133 19.1238 2.58627C19.1727 2.66247 19.2027 2.7496 19.2113 2.84018C19.2198 2.93076 19.2066 3.0221 19.1728 3.10637L18.4718 4.95166V14.2137L18.612 14.2636C20.7381 14.9663 22.6693 16.1726 24.2465 17.783C25.8237 19.3933 27.0016 21.3617 27.6832 23.5257C27.8384 23.9922 27.9649 24.4681 28.0617 24.9506C28.1784 25.5026 28.258 26.062 28.3001 26.6249C28.3001 27.0168 28.3491 27.4015 28.3491 27.7649C28.3471 30.0438 27.801 32.2881 26.7578 34.3053C26.6036 34.5975 26.4564 34.8682 26.2952 35.1318C26.1339 35.3954 26.0498 35.5237 25.9306 35.716L25.5311 36.2718C25.3278 36.5425 25.1104 36.8132 24.8931 37.0697C23.5552 38.6178 21.9076 39.8577 20.0604 40.7067C18.2132 41.5557 16.2089 41.9942 14.1816 41.9929C10.4445 42.0099 6.85343 40.5189 4.1971 37.8472C1.54076 35.1756 0.0362744 31.5417 0.0140228 27.7435C0.0249424 24.7406 0.971828 21.8184 2.71873 19.3966C4.46563 16.9747 6.92269 15.1777 9.73713 14.2636V14.2636ZM14.1676 40.8886C17.6104 40.9056 20.9194 39.5344 23.3689 37.0756C25.8184 34.6168 27.2086 31.271 27.2345 27.772C27.2174 24.9078 26.2822 22.1274 24.5708 19.8518C22.8593 17.5763 20.4647 15.9296 17.7498 15.1613C17.6336 15.13 17.5309 15.0607 17.4574 14.9641C17.3839 14.8676 17.3438 14.7491 17.3432 14.627V3.4626H10.9779V14.627C10.9814 14.653 10.9814 14.6793 10.9779 14.7054C10.9655 14.7689 10.9467 14.8309 10.9218 14.8906C10.889 14.9394 10.8514 14.9848 10.8097 15.026C10.7431 15.0875 10.6642 15.1337 10.5784 15.1613C7.86663 15.9333 5.47581 17.5813 3.76719 19.8564C2.05858 22.1315 1.12502 24.91 1.10761 27.772C1.1317 31.2704 2.52031 34.6161 4.96873 37.0752C7.41715 39.5342 10.7254 40.9056 14.1676 40.8886Z" fill="#1F1A4F"/>
					<path d="M27.3607 28.0784C27.306 29.5582 27.0221 31.0201 26.5195 32.4102C26.3653 32.8519 26.19 33.2794 25.9937 33.7069C25.7599 34.2356 25.4905 34.7475 25.1876 35.2387C23.8274 37.5126 21.715 39.22 19.2289 40.055C19.0817 40.0977 18.9345 40.1476 18.7873 40.1832C17.3179 40.7264 15.7662 41.0037 14.2026 41.0025C12.4793 41.0129 10.7708 40.6781 9.17473 40.0173C7.57868 39.3566 6.12632 38.3828 4.90057 37.1516C3.67481 35.9204 2.69968 34.4558 2.03084 32.8416C1.362 31.2273 1.01255 29.495 1.00246 27.7435C1.001 26.7845 1.10684 25.8284 1.31791 24.8936C1.33148 24.7924 1.35257 24.6924 1.38101 24.5944C1.42138 24.4562 1.4754 24.3225 1.54224 24.1954C1.84362 23.6992 2.30037 23.3203 2.83912 23.1196C4.41425 22.4797 6.17112 22.4797 7.74624 23.1196C9.49024 23.8486 11.0836 24.9048 12.4431 26.2331C13.7692 27.5101 15.1741 28.6999 16.6492 29.7954C17.6356 30.5354 18.7823 31.0241 19.993 31.2203C21.1784 31.3277 22.3713 31.1317 23.463 30.6504C24.7478 30.1311 25.9339 29.3885 26.9681 28.456L27.3607 28.0784Z" fill="#1F1A4F"/>
					<path d="M17.0347 23.1766C18.5756 23.1766 19.8248 21.923 19.8248 20.3766C19.8248 18.8302 18.5756 17.5766 17.0347 17.5766C15.4938 17.5766 14.2447 18.8302 14.2447 20.3766C14.2447 21.923 15.4938 23.1766 17.0347 23.1766Z" fill="#2D5DA8"/>
					<path d="M13.4455 11.3924C14.2895 11.3924 14.9737 10.7034 14.9737 9.85345C14.9737 9.00352 14.2895 8.31451 13.4455 8.31451C12.6015 8.31451 11.9173 9.00352 11.9173 9.85345C11.9173 10.7034 12.6015 11.3924 13.4455 11.3924Z" fill="#1F1A4F"/>
					<path d="M16.9997 1.83817C17.5068 1.83817 17.918 1.42668 17.918 0.919084C17.918 0.411488 17.5068 0 16.9997 0C16.4925 0 16.0813 0.411488 16.0813 0.919084C16.0813 1.42668 16.4925 1.83817 16.9997 1.83817Z" fill="#2D5DA8"/>
					<path d="M22.1521 7.0748C22.5045 7.0748 22.7901 6.78772 22.7901 6.43358C22.7901 6.07944 22.5045 5.79236 22.1521 5.79236C21.7998 5.79236 21.5142 6.07944 21.5142 6.43358C21.5142 6.78772 21.7998 7.0748 22.1521 7.0748Z" fill="#1F1A4F"/>
					<path d="M48.4052 32.973H40.2875V7.50941H46.5966C48.1771 7.44696 49.7511 7.74646 51.2023 8.38575C52.252 8.90006 53.1332 9.71154 53.74 10.7226C54.3402 11.7624 54.6436 12.9515 54.6163 14.1567C54.6163 16.6551 53.3988 18.4458 50.964 19.5287C52.5798 19.7961 54.0607 20.6064 55.1701 21.83C56.1998 22.9852 56.7565 24.4965 56.7263 26.055C56.7461 27.2845 56.4176 28.4939 55.7799 29.5389C55.0837 30.612 54.1148 31.4737 52.9759 32.0326C51.5477 32.7113 49.9807 33.0337 48.4052 32.973V32.973ZM46.6737 10.7583H43.7224V18.4102H46.0007C47.8327 18.4102 49.1343 18.0397 49.9054 17.2987C50.2843 16.9328 50.583 16.49 50.7823 15.999C50.9816 15.5079 51.0769 14.9798 51.0621 14.4489C51.0621 11.9885 49.5993 10.7583 46.6737 10.7583ZM46.9261 21.6519H43.7224V29.7598H47.1013C48.392 29.8456 49.6872 29.6886 50.9219 29.2967C51.5864 28.9946 52.1476 28.4986 52.5342 27.8718C52.9376 27.2347 53.1496 26.4919 53.1441 25.7343C53.1495 24.9716 52.9243 24.2255 52.4992 23.5969C52.0502 22.9399 51.4106 22.4417 50.6695 22.172C49.4613 21.7771 48.1942 21.601 46.9261 21.6519V21.6519Z" fill="#1F1A4F"/>
					<path d="M62.5378 7.5094H76.1305V10.7583H65.9727V18.517H75.787V21.7801H65.9727V29.6885H76.488V32.9303H62.5378V7.5094Z" fill="#1F1A4F"/>
					<path d="M82.678 32.973V7.50941H88.6857C90.7765 7.39629 92.8336 8.07966 94.4551 9.42595C95.1611 10.0756 95.7161 10.8768 96.0798 11.7715C96.4436 12.6661 96.607 13.6317 96.5581 14.5985C96.6053 15.9525 96.2591 17.2906 95.5627 18.4458C94.8341 19.553 93.7823 20.4002 92.5553 20.8682C93.4063 21.4819 94.1644 22.2188 94.8056 23.0555C95.937 24.5966 96.9696 26.2101 97.8971 27.886C98.7313 29.3109 99.3972 30.4153 99.902 31.1491L101.171 32.973H97.0769L96.0324 31.2916C96.0324 31.2346 95.9272 31.1277 95.8221 30.9852L95.121 29.9807L94.0905 28.1211L92.9479 26.1333C92.3654 25.2501 91.7137 24.4162 90.9991 23.6397C90.528 23.1222 89.9904 22.6716 89.4007 22.3003C88.6448 21.9724 87.8233 21.8309 87.0033 21.887H86.106V32.973H82.678ZM87.1505 10.6087H86.106V18.6453H87.4098C88.6226 18.7257 89.8392 18.566 90.992 18.1751C91.6257 17.8675 92.1516 17.3702 92.4992 16.7501C92.8673 16.0854 93.0537 15.3326 93.039 14.57C93.0423 13.8147 92.8358 13.0738 92.4432 12.4326C92.054 11.7889 91.4568 11.3028 90.7537 11.0575C89.5833 10.7165 88.3673 10.5651 87.1505 10.6087V10.6087Z" fill="#1F1A4F"/>
					<path d="M101.066 7.47379H121.094V10.7226H112.738V32.973H109.282V10.7226H101.066V7.47379Z" fill="#1F1A4F"/>
					<path d="M126.898 32.973V7.50941H132.906C134.999 7.39448 137.059 8.07796 138.682 9.42595C139.393 10.0732 139.954 10.8731 140.324 11.7677C140.694 12.6622 140.863 13.6291 140.82 14.5985C140.853 15.9575 140.49 17.296 139.776 18.4458C139.045 19.551 137.994 20.3977 136.768 20.8682C137.616 21.4857 138.374 22.2221 139.019 23.0555C140.148 24.5983 141.18 26.2117 142.11 27.886C142.944 29.3109 143.61 30.4153 144.115 31.1491L145.384 32.973H141.304L140.253 31.2916C140.217 31.2346 140.154 31.1277 140.049 30.9852L139.348 29.9807L138.325 28.1211L137.175 26.1333C136.597 25.2468 135.945 24.4125 135.226 23.6397C134.759 23.1186 134.22 22.6676 133.628 22.3002C132.875 21.9717 132.055 21.8301 131.237 21.887H130.333V32.973H126.898ZM131.364 10.6086H130.333V18.6453H131.637C132.85 18.7252 134.066 18.5655 135.219 18.1751C135.853 17.8675 136.379 17.3702 136.726 16.7501C137.092 16.0845 137.279 15.3323 137.266 14.57C137.27 13.8136 137.061 13.0719 136.663 12.4326C136.276 11.7873 135.678 11.3006 134.974 11.0575C133.801 10.7144 132.583 10.5629 131.364 10.6086V10.6086Z" fill="#1F1A4F"/>
					<path d="M158.143 7.36691H160.554L171.308 32.973H167.803L164.606 25.428H154.371L151.371 32.973H147.866L158.143 7.36691ZM163.19 22.1791L159.355 12.9598L155.766 22.1791H163.19Z" fill="#1F1A4F"/>
					<path d="M195.465 7.5094H198.675V32.973H195.226V13.1593L187.852 23.0056H187.214L179.762 13.1593V32.973H176.327V7.5094H179.58L187.543 17.9684L195.465 7.5094Z" fill="#1F1A4F"/>
					<path d="M220.519 7.5094V31.3272H232.38V32.973H218.661V7.5094H220.519Z" fill="#1F1A4F" stroke="#1F1B4E" stroke-width="0.25" stroke-miterlimit="10"/>
					<path d="M247.081 7.3313L258.164 32.9801H256.215L252.422 24.174H240.673L236.895 32.9801H234.946L246.029 7.3313H247.081ZM251.721 22.5282L246.548 10.5232L241.374 22.5282H251.721Z" fill="#1F1A4F" stroke="#1F1B4E" stroke-width="0.25" stroke-miterlimit="10"/>
					<path d="M263.554 7.5094H268.553C271.175 7.5094 273.161 8.09363 274.511 9.26208C275.184 9.85903 275.715 10.6031 276.065 11.4384C276.415 12.2738 276.574 13.1788 276.53 14.0855C276.53 16.5364 275.381 18.4244 273.081 19.7496C276.783 20.6046 278.626 22.7491 278.626 26.2046C278.663 27.1411 278.486 28.0736 278.109 28.929C277.732 29.7843 277.165 30.5393 276.453 31.1348C275.009 32.3532 273.046 32.9659 270.579 32.9659H263.568L263.554 7.5094ZM265.412 9.1552V19.3008H268.013C272.373 19.3008 274.553 17.6122 274.553 14.2351C274.553 10.858 272.35 9.1647 267.943 9.1552H265.412ZM265.412 20.9608V31.3272H270.368C272.422 31.3272 273.979 30.8641 275.037 29.9023C275.558 29.4449 275.972 28.8748 276.249 28.2338C276.526 27.5928 276.658 26.897 276.635 26.1974C276.635 22.7206 274.278 20.9822 269.562 20.9822L265.412 20.9608Z" fill="#1F1A4F" stroke="#1F1B4E" stroke-width="0.25" stroke-miterlimit="10"/>
					<path d="M295.92 8.78473V10.9221C293.817 9.61831 292.044 8.96997 290.544 8.96997C289.879 8.95382 289.218 9.0714 288.598 9.31595C287.979 9.5605 287.413 9.92719 286.933 10.3949C286.464 10.8331 286.092 11.3679 285.841 11.9637C285.591 12.5595 285.469 13.2027 285.482 13.8504C285.475 14.8072 285.775 15.7403 286.338 16.5079C286.912 17.2987 288.111 18.0539 289.927 18.7878C291.292 19.3033 292.622 19.9102 293.909 20.6046C294.766 21.1376 295.487 21.8702 296.012 22.742C296.631 23.8206 296.935 25.0564 296.888 26.3043C296.908 27.2329 296.739 28.1557 296.39 29.0142C296.042 29.8728 295.521 30.6483 294.862 31.2916C294.214 31.9502 293.441 32.4689 292.59 32.8166C291.74 33.1643 290.829 33.3338 289.913 33.315C287.689 33.2344 285.545 32.4581 283.772 31.0921V28.7623C286.109 30.572 288.123 31.4768 289.815 31.4768C290.48 31.4907 291.142 31.3678 291.76 31.1156C292.378 30.8634 292.939 30.4871 293.411 30.0092C293.881 29.5484 294.254 28.9946 294.506 28.382C294.758 27.7693 294.884 27.1108 294.876 26.4468C294.887 25.3969 294.568 24.3709 293.965 23.5186C293.362 22.6494 292.128 21.8371 290.277 21.0819C288.917 20.5564 287.59 19.9473 286.302 19.258C285.483 18.7722 284.789 18.0958 284.277 17.2845C283.685 16.2898 283.395 15.1399 283.442 13.9786C283.432 13.0821 283.608 12.1934 283.957 11.37C284.305 10.5465 284.82 9.80658 285.468 9.19796C286.115 8.55197 286.882 8.04395 287.725 7.7038C288.568 7.36365 289.469 7.19824 290.375 7.2173C292.328 7.23269 294.241 7.77351 295.92 8.78473V8.78473Z" fill="#1F1A4F" stroke="#1F1B4E" stroke-width="0.25" stroke-miterlimit="10"/>
					</g>
					<defs>
					<clipPath id="clip0">
					<rect width="297" height="42" fill="white" background-color="white"/>
					</clipPath>
					</defs>
					</svg>